<svg xmlns="http://www.w3.org/2000/svg" xmlns:svg="http://www.w3.org/2000/svg" id="svg2" width="16" height="16" version="1.1"><metadata id="metadata12"/><path id="path6" d="m 12.228,1 c -1.3565,0 -2.4592,1.0977 -2.4592,2.4542 0,0.075 0.0084,0.1504 0.0149,0.2236 L 5.0491,6.0923 C 4.62,5.7256 4.06299,5.506 3.4544,5.506 c -1.3565,0 -2.4542,1.0977 -2.4542,2.4543 0,1.3565 1.0977,2.4542 2.4542,2.4542 0.54607,0 1.0528,-0.1755 1.4606,-0.477 l 4.8637,2.4741 c -0.0024,0.044 -0.0099,0.089 -0.0099,0.1342 0,1.3565 1.1027,2.4542 2.4592,2.4542 1.3565,0 2.4542,-1.0977 2.4542,-2.4542 0,-1.3565 -1.0977,-2.4592 -2.4542,-2.4592 -0.63653,0 -1.218,0.2437 -1.6544,0.6409 l -4.6953,-2.4 C 5.89722,8.2047 5.91308,8.0781 5.91308,7.95 c 0,-0.072 -0.0089,-0.1437 -0.0149,-0.2137 l 4.7395,-2.4145 c 0.42802,0.3627 0.98488,0.5813 1.5898,0.5813 1.3565,0 2.4542,-1.1027 2.4542,-2.4592 0,-1.3565 -1.0977,-2.4542 -2.4542,-2.4542 z" style="fill:#fff;fill-opacity:1"/></svg>